# xmcd
#
# Track frame offsets:
# 183
# 32173
# 40988
# 55558
# 64320
# 83983
# 102803
# 116773
# 118685
# 130183
#
# Disc length: 2033 seconds
#
#
# Revision: 4
# Processed by: cddbd v1.5.2PL0 Copyright (c) Steve Scherf et al.
# Submitted via: FreeRIP 2.951 
#
DISCID=8607ef0a
DTITLE=de André Fabrizio - Tutti morimmo a stento
DYEAR=1968
DGENRE=Cantautori Italiani
TTITLE0=Cantico dei drogati
TTITLE1=Primo intermezzo
TTITLE2=Leggenda di Natale
TTITLE3=Secondo intermezzo
TTITLE4=Ballata degli impiccati
TTITLE5=Inverno
TTITLE6=Girotondo
TTITLE7=Terzo intermezzo
TTITLE8=Recitativo (due invocazioni e un atto d'accusa)
TTITLE9=Corale (leggenda del Re infelice)
EXTD=
EXTT0=
EXTT1=
EXTT2=
EXTT3=
EXTT4=
EXTT5=
EXTT6=
EXTT7=
EXTT8=
EXTT9=
PLAYORDER=
